<?xml version="1.0" encoding="UTF-8" standalone="no"?>
<!-- Created with Inkscape (http://www.inkscape.org/) -->

<svg
   xmlns:dc="http://purl.org/dc/elements/1.1/"
   xmlns:cc="http://creativecommons.org/ns#"
   xmlns:rdf="http://www.w3.org/1999/02/22-rdf-syntax-ns#"
   xmlns:svg="http://www.w3.org/2000/svg"
   xmlns="http://www.w3.org/2000/svg"
   xmlns:sodipodi="http://sodipodi.sourceforge.net/DTD/sodipodi-0.dtd"
   xmlns:inkscape="http://www.inkscape.org/namespaces/inkscape"
   version="1.1"
   width="137.33578"
   height="128.0952"
   id="svg2"
   inkscape:version="0.91 r13725"
   sodipodi:docname="bitergia-logo-w.svg"
   inkscape:export-filename="/home/luis/repos/bitergia/website/logo/logo-test.png"
   inkscape:export-xdpi="78.965027"
   inkscape:export-ydpi="78.965027">
  <metadata
     id="metadata3073">
    <rdf:RDF>
      <cc:Work
         rdf:about="">
        <dc:format>image/svg+xml</dc:format>
        <dc:type
           rdf:resource="http://purl.org/dc/dcmitype/StillImage" />
        <dc:title></dc:title>
      </cc:Work>
    </rdf:RDF>
  </metadata>
  <sodipodi:namedview
     pagecolor="#ffffff"
     bordercolor="#666666"
     borderopacity="1"
     objecttolerance="10"
     gridtolerance="10"
     guidetolerance="10"
     inkscape:pageopacity="0"
     inkscape:pageshadow="2"
     inkscape:window-width="3200"
     inkscape:window-height="1671"
     id="namedview3071"
     showgrid="true"
     inkscape:zoom="2.4531152"
     inkscape:cx="58.734207"
     inkscape:cy="35.9887"
     inkscape:window-x="0"
     inkscape:window-y="55"
     inkscape:window-maximized="1"
     inkscape:current-layer="svg2"
     inkscape:snap-grids="true"
     fit-margin-top="0"
     fit-margin-left="0"
     fit-margin-right="0"
     fit-margin-bottom="0">
    <inkscape:grid
       type="xygrid"
       id="grid3075"
       originx="-142.11613"
       originy="-483.50957" />
  </sodipodi:namedview>
  <defs
     id="defs4" />
  <path
     d="m 65.81003,34.589111 a 21.977776,18.46584 0 0 1 -43.95555,0 21.977776,18.46584 0 1 1 43.95555,0 z"
     id="path4006"
     style="fill:#ffffff;fill-opacity:0;stroke:#ffffff;stroke-width:7.10200024;stroke-linejoin:round;stroke-miterlimit:4;stroke-dasharray:none;stroke-opacity:1"
     inkscape:connector-curvature="0"
     inkscape:export-xdpi="229.04837"
     inkscape:export-ydpi="229.04837" />
  <path
     d="m 52.20474,34.589111 a 8.1108453,7.3863354 0 1 1 -16.22169,0 8.1108453,7.3863354 0 1 1 16.22169,0 z"
     id="path4017"
     style="fill:#000000;stroke:#000000;stroke-width:7.1018672;stroke-linejoin:round;stroke-miterlimit:4;stroke-dasharray:none"
     inkscape:connector-curvature="0"
     inkscape:export-xdpi="229.04837"
     inkscape:export-ydpi="229.04837" />
  <path
     d="m 42.78538,33.204011 a 1.3082009,1.8465838 0 1 1 -2.6164,0 1.3082009,1.8465838 0 1 1 2.6164,0 z"
     id="path4019"
     style="fill:#ffffff;stroke:#ffffff;stroke-width:7.1018672;stroke-linejoin:round;stroke-miterlimit:4;stroke-dasharray:none"
     inkscape:connector-curvature="0"
     inkscape:export-xdpi="229.04837"
     inkscape:export-ydpi="229.04837" />
  <path
     d="m 115.65002,34.589111 a 21.97778,18.465843 0 0 1 -43.95556,0 21.97778,18.465843 0 1 1 43.95556,0 z"
     id="path4028"
     style="fill:#ffffff;fill-opacity:0;stroke:#ffffff;stroke-width:7.1018672;stroke-linejoin:round;stroke-miterlimit:4;stroke-dasharray:none;stroke-opacity:1"
     inkscape:connector-curvature="0"
     inkscape:export-xdpi="229.04837"
     inkscape:export-ydpi="229.04837" />
  <path
     d="m 102.04473,34.589111 a 8.1108453,7.3863354 0 1 1 -16.22169,0 8.1108453,7.3863354 0 1 1 16.22169,0 z"
     id="path4030"
     style="fill:#000000;stroke:#000000;stroke-width:7.1018672;stroke-linejoin:round;stroke-miterlimit:4;stroke-dasharray:none"
     inkscape:connector-curvature="0"
     inkscape:export-xdpi="229.04837"
     inkscape:export-ydpi="229.04837" />
  <path
     d="m 92.62537,33.204011 a 1.3082009,1.8465838 0 1 1 -2.6164,0 1.3082009,1.8465838 0 1 1 2.6164,0 z"
     id="path4032"
     style="fill:#ffffff;stroke:#ffffff;stroke-width:7.1018672;stroke-linejoin:round;stroke-miterlimit:4;stroke-dasharray:none"
     inkscape:connector-curvature="0"
     inkscape:export-xdpi="229.04837"
     inkscape:export-ydpi="229.04837" />
  <path
     d="m 99.00396,76.100571 c 0,11.63238 -13.52542,49.836299 -30.20987,49.836299 -16.68446,0 -30.20987,-38.203919 -30.20987,-49.836299 0,-11.63237 13.52541,-21.06227 30.20987,-21.06227 16.68445,0 30.20987,9.4299 30.20987,21.06227 z"
     id="path4036"
     style="fill:#ffffff;fill-opacity:1;stroke:#ffffff;stroke-width:4.31666517;stroke-linejoin:round;stroke-miterlimit:4;stroke-opacity:1"
     inkscape:connector-curvature="0"
     inkscape:export-xdpi="229.04837"
     inkscape:export-ydpi="229.04837" />
  <path
     d="m 79.24908,48.948011 -10.06403,10e-6 -10.06403,-10e-6 5.03202,5.2826 5.03201,5.2826 5.03201,-5.2826 5.03202,-5.2826 z"
     id="path4045"
     style="fill:#ffffff;fill-opacity:1;stroke:#ffffff;stroke-width:0.6681962;stroke-linejoin:round;stroke-miterlimit:4;stroke-dasharray:none"
     inkscape:connector-curvature="0"
     inkscape:export-xdpi="229.04837"
     inkscape:export-ydpi="229.04837" />
  <path
     d="M 88.20446,14.156331 135.2997,1.6047715 C 138.62442,18.080061 103.74326,17.579491 87.68118,17.579491 Z"
     id="rect4049"
     style="fill:#ffffff;fill-opacity:1;stroke:#ffffff;stroke-width:1.63888812;stroke-linejoin:round;stroke-miterlimit:4;stroke-opacity:1"
     inkscape:connector-curvature="0"
     inkscape:export-xdpi="229.04837"
     inkscape:export-ydpi="229.04837" />
  <path
     d="M 49.13495,14.156331 2.0397195,1.6047715 C -1.2850005,18.080061 33.59615,17.579491 49.65823,17.579491 Z"
     id="path4052"
     style="fill:#ffffff;fill-opacity:1;stroke:#ffffff;stroke-width:1.63888812;stroke-linejoin:round;stroke-miterlimit:4;stroke-opacity:1"
     inkscape:connector-curvature="0"
     inkscape:export-xdpi="229.04837"
     inkscape:export-ydpi="229.04837" />
  <path
     d="m 53.49392,123.9883 a 3.20386,2.8264944 0 0 1 -6.40772,0 3.20386,2.8264944 0 1 1 6.40772,0 z"
     id="path4076"
     style="fill:#ffa500;fill-opacity:1;stroke:none"
     inkscape:connector-curvature="0"
     inkscape:export-xdpi="229.04837"
     inkscape:export-ydpi="229.04837" />
  <path
     d="m 59.90163,123.9883 a 3.2038584,2.826493 0 0 1 -6.40771,0 3.2038584,2.826493 0 1 1 6.40771,0 z"
     id="path4078"
     style="fill:#ffa500;fill-opacity:1;stroke:none"
     inkscape:connector-curvature="0"
     inkscape:export-xdpi="229.04837"
     inkscape:export-ydpi="229.04837" />
  <path
     d="m 66.30935,123.9883 a 3.20386,2.8264944 0 0 1 -6.40772,0 3.20386,2.8264944 0 1 1 6.40772,0 z"
     id="path4080"
     style="fill:#ffa500;fill-opacity:1;stroke:none"
     inkscape:connector-curvature="0"
     inkscape:export-xdpi="229.04837"
     inkscape:export-ydpi="229.04837" />
  <path
     d="m 80.40632,123.9883 a 3.2038584,2.826493 0 0 1 -6.40771,0 3.2038584,2.826493 0 1 1 6.40771,0 z"
     id="path4082"
     style="fill:#ffa500;fill-opacity:1;stroke:none"
     inkscape:connector-curvature="0"
     inkscape:export-xdpi="229.04837"
     inkscape:export-ydpi="229.04837" />
  <path
     d="m 86.81404,123.9883 a 3.20386,2.8264944 0 0 1 -6.40772,0 3.20386,2.8264944 0 1 1 6.40772,0 z"
     id="path4084"
     style="fill:#ffa500;fill-opacity:1;stroke:none"
     inkscape:connector-curvature="0"
     inkscape:export-xdpi="229.04837"
     inkscape:export-ydpi="229.04837" />
  <path
     d="m 93.22175,123.9883 a 3.20386,2.8264944 0 0 1 -6.40772,0 3.20386,2.8264944 0 1 1 6.40772,0 z"
     id="path4086"
     style="fill:#ffa500;fill-opacity:1;stroke:none"
     inkscape:connector-curvature="0"
     inkscape:export-xdpi="229.04837"
     inkscape:export-ydpi="229.04837" />
  <path
     d="m 68.6163,40.916261 c -1.69435,2.28631 -2.70055,5.14744 -4.77383,7.27182 -1.26622,0.90331 -3.87119,-0.46773 -4.9782,0.88114 3.09761,3.77087 6.61239,7.45791 10.20247,10.73174 2.09844,-1.12813 3.572,-3.47473 5.38276,-5.08997 1.64465,-1.89538 3.72353,-3.58935 5.04493,-5.66429 -1.19876,-1.143 -3.38279,-0.26208 -4.92106,-0.6644 -2.54761,-0.86591 -3.29988,-4.02893 -4.70397,-6.05697 -0.38083,-0.43162 -0.56353,-1.43813 -1.2531,-1.40907 z"
     id="path3427"
     style="color:#000000;display:inline;overflow:visible;visibility:visible;fill:#ffa500;fill-opacity:1;fill-rule:nonzero;stroke:none;stroke-width:1px;marker:none;enable-background:accumulate"
     inkscape:connector-curvature="0"
     inkscape:export-xdpi="229.04837"
     inkscape:export-ydpi="229.04837" />
  <path
     inkscape:export-ydpi="229.04837"
     inkscape:export-xdpi="229.04837"
     inkscape:export-filename="/tmp/ico.png"
     inkscape:connector-curvature="0"
     id="path3782"
     d="m 41.11348,56.317721 c -6.4179,-0.75626 -12.74343,-3.73468 -16.71883,-7.87218 -6.53303,-6.7994 -7.63224,-15.96692 -2.87556,-23.98241 0.74984,-1.26356 2.46296,-3.33486 3.80694,-4.60289 1.34397,-1.26803 2.23321,-2.30551 1.97608,-2.30551 -1.08765,0 -6.79149,-0.80167 -9.29332,-1.30617 C 6.8968995,14.007821 1.2819495,9.8177915 1.2819495,3.7665215 c 0,-1.16618 0.15608,-2.27641 0.34685,-2.46718 0.22178,-0.22178 8.4114905,1.78517 22.7136005,5.56614 12.30171,3.2521295 23.91007,6.2720095 25.79635,6.7108395 1.88629,0.43883 4.81047,1.46793 6.4982,2.2869 5.4087,2.62457 10.67883,8.72892 11.73313,13.59039 l 0.27088,1.24907 0.79374,-2.19208 c 1.62414,-4.48545 4.25634,-7.88513 8.39081,-10.83733 2.79023,-1.99235 5.5753,-3.13493 10.51463,-4.31365 2.12101,-0.50616 13.58906,-3.5139095 25.48456,-6.6838895 16.89688,-4.50277 21.69332,-5.66093 21.92588,-5.29428 0.16373,0.25812 0.30018,1.37153 0.30322,2.47424 0.016,5.82122 -5.55935,10.0793795 -16.05945,12.2652595 -2.83043,0.58922 -8.58631,1.43378 -9.77164,1.43378 -0.22236,0 0.91056,1.34115 2.51761,2.98032 3.33917,3.40594 4.99134,6.35874 5.86459,10.48133 1.78593,8.43148 -3.07256,17.57835 -11.70405,22.03469 -8.11843,4.19145 -17.14101,4.40264 -25.17366,0.58925 -4.17437,-1.98173 -4.05918,-1.84663 -2.88597,-3.38479 0.5506,-0.72188 0.89782,-1.41578 0.7716,-1.542 -0.12622,-0.12622 -1.42661,-0.32741 -2.88975,-0.44709 -1.46314,-0.11968 -2.93448,-0.44518 -3.26965,-0.72334 -0.89291,-0.74105 -3.51147,-5.33672 -4.23079,-7.42519 -0.3494,-1.01445 -0.63279,-1.46759 -0.64702,-1.03459 -0.0354,1.0769 -2.65271,6.17426 -4.00686,7.80354 -1.01672,1.22331 -1.29377,1.35379 -2.87442,1.35379 -2.96179,0 -3.53229,0.53474 -2.14543,2.01097 l 0.74588,0.79396 -1.10253,0.78507 c -1.72401,1.22761 -6.11244,3.11325 -8.6925,3.73503 -2.52434,0.60836 -7.33482,0.99378 -9.38628,0.75204 l 0,0 z m 7.90539,-7.36487 c 5.75323,-1.37919 9.96967,-4.51612 12.09297,-8.99687 0.98096,-2.0701 1.12078,-2.74889 1.12078,-5.44133 0,-2.73782 -0.12841,-3.33701 -1.16738,-5.44746 -2.85381,-5.79692 -9.5158,-9.44635 -17.24418,-9.44635 -7.72769,0 -14.39039,3.6495 -17.24361,9.4452 -1.03821,2.10892 -1.16687,2.70928 -1.16737,5.44746 -5.1e-4,2.69439 0.1389,3.37165 1.12021,5.44248 2.09211,4.41494 6.32613,7.60354 11.92186,8.97827 3.70316,0.90977 6.82632,0.91527 10.56672,0.0186 l 0,10e-6 z m 49.773,0.0111 c 4.99692,-1.19796 8.78278,-3.58254 11.00639,-6.93255 6.83571,-10.29845 -1.89135,-22.39364 -16.1577,-22.39364 -13.15121,0 -22.01882,10.58471 -17.16545,20.48932 2.10463,4.29506 6.35892,7.47127 11.79654,8.80715 3.69099,0.90678 6.82484,0.91563 10.52022,0.0297 l 0,10e-6 z"
     style="fill:#ffffff;fill-opacity:0;stroke:#ffffff;stroke-width:2.56389904;stroke-linecap:butt;stroke-linejoin:miter;stroke-miterlimit:4;stroke-dasharray:none;stroke-opacity:1" />
</svg>
