<?xml version="1.0" encoding="UTF-8" standalone="no"?>
<!-- Created with Inkscape (http://www.inkscape.org/) -->

<svg
   xmlns:dc="http://purl.org/dc/elements/1.1/"
   xmlns:cc="http://creativecommons.org/ns#"
   xmlns:rdf="http://www.w3.org/1999/02/22-rdf-syntax-ns#"
   xmlns:svg="http://www.w3.org/2000/svg"
   xmlns="http://www.w3.org/2000/svg"
   xmlns:sodipodi="http://sodipodi.sourceforge.net/DTD/sodipodi-0.dtd"
   xmlns:inkscape="http://www.inkscape.org/namespaces/inkscape"
   width="141"
   height="51"
   viewBox="0 0 141 51.000001"
   id="svg14569"
   version="1.1"
   inkscape:version="0.92.3 (2405546, 2018-03-11)"
   sodipodi:docname="logobitergia (small).svg">
  <defs
     id="defs14571" />
  <sodipodi:namedview
     id="base"
     pagecolor="#ffffff"
     bordercolor="#666666"
     borderopacity="1.0"
     inkscape:pageopacity="0.0"
     inkscape:pageshadow="2"
     inkscape:zoom="8.1492325"
     inkscape:cx="74.491371"
     inkscape:cy="32.242306"
     inkscape:document-units="px"
     inkscape:current-layer="layer1"
     showgrid="false"
     units="px"
     inkscape:window-width="1853"
     inkscape:window-height="1025"
     inkscape:window-x="67"
     inkscape:window-y="27"
     inkscape:window-maximized="1" />
  <metadata
     id="metadata14574">
    <rdf:RDF>
      <cc:Work
         rdf:about="">
        <dc:format>image/svg+xml</dc:format>
        <dc:type
           rdf:resource="http://purl.org/dc/dcmitype/StillImage" />
        <dc:title></dc:title>
      </cc:Work>
    </rdf:RDF>
  </metadata>
  <g
     inkscape:label="Capa 1"
     inkscape:groupmode="layer"
     id="layer1"
     transform="translate(0,-1001.3622)">
    <g
       id="g15157"
       transform="matrix(0.32203382,0,0,0.32203382,-43.702061,707.70137)">
      <path
         inkscape:export-ydpi="229.04837"
         inkscape:export-xdpi="229.04837"
         inkscape:connector-curvature="0"
         style="fill:#ffffff;fill-opacity:0;stroke:#ffffff;stroke-width:7.10200024;stroke-linejoin:round;stroke-miterlimit:4;stroke-dasharray:none;stroke-opacity:1"
         id="path4006"
         d="m 205.51713,961.66087 a 21.977776,18.46584 0 0 1 -43.95555,0 21.977776,18.46584 0 1 1 43.95555,0 z" />
      <path
         inkscape:export-ydpi="229.04837"
         inkscape:export-xdpi="229.04837"
         inkscape:connector-curvature="0"
         style="fill:#000000;stroke:#000000;stroke-width:7.1018672;stroke-linejoin:round;stroke-miterlimit:4;stroke-dasharray:none"
         id="path4017"
         d="m 191.91184,961.66087 a 8.1108453,7.3863354 0 1 1 -16.22169,0 8.1108453,7.3863354 0 1 1 16.22169,0 z" />
      <path
         inkscape:export-ydpi="229.04837"
         inkscape:export-xdpi="229.04837"
         inkscape:connector-curvature="0"
         style="fill:#ffffff;stroke:#ffffff;stroke-width:7.1018672;stroke-linejoin:round;stroke-miterlimit:4;stroke-dasharray:none"
         id="path4019"
         d="m 182.49248,960.27577 a 1.3082009,1.8465838 0 1 1 -2.6164,0 1.3082009,1.8465838 0 1 1 2.6164,0 z" />
      <path
         inkscape:export-ydpi="229.04837"
         inkscape:export-xdpi="229.04837"
         inkscape:connector-curvature="0"
         style="fill:#ffffff;fill-opacity:0;stroke:#ffffff;stroke-width:7.1018672;stroke-linejoin:round;stroke-miterlimit:4;stroke-dasharray:none;stroke-opacity:1"
         id="path4028"
         d="m 255.35712,961.66087 a 21.97778,18.465843 0 0 1 -43.95556,0 21.97778,18.465843 0 1 1 43.95556,0 z" />
      <path
         inkscape:export-ydpi="229.04837"
         inkscape:export-xdpi="229.04837"
         inkscape:connector-curvature="0"
         style="fill:#000000;stroke:#000000;stroke-width:7.1018672;stroke-linejoin:round;stroke-miterlimit:4;stroke-dasharray:none"
         id="path4030"
         d="m 241.75183,961.66087 a 8.1108453,7.3863354 0 1 1 -16.22169,0 8.1108453,7.3863354 0 1 1 16.22169,0 z" />
      <path
         inkscape:export-ydpi="229.04837"
         inkscape:export-xdpi="229.04837"
         inkscape:connector-curvature="0"
         style="fill:#ffffff;stroke:#ffffff;stroke-width:7.1018672;stroke-linejoin:round;stroke-miterlimit:4;stroke-dasharray:none"
         id="path4032"
         d="m 232.33247,960.27577 a 1.3082009,1.8465838 0 1 1 -2.6164,0 1.3082009,1.8465838 0 1 1 2.6164,0 z" />
      <path
         inkscape:export-ydpi="229.04837"
         inkscape:export-xdpi="229.04837"
         inkscape:connector-curvature="0"
         style="fill:#ffffff;fill-opacity:1;stroke:#ffffff;stroke-width:4.31666517;stroke-linejoin:round;stroke-miterlimit:4;stroke-opacity:1"
         id="path4036"
         d="m 238.71106,1003.1724 c 0,11.6324 -13.52542,49.8363 -30.20987,49.8363 -16.68446,0 -30.20987,-38.2039 -30.20987,-49.8363 0,-11.63243 13.52541,-21.06233 30.20987,-21.06233 16.68445,0 30.20987,9.4299 30.20987,21.06233 z" />
      <path
         inkscape:export-ydpi="229.04837"
         inkscape:export-xdpi="229.04837"
         inkscape:connector-curvature="0"
         style="fill:#ffffff;fill-opacity:1;stroke:#ffffff;stroke-width:0.6681962;stroke-linejoin:round;stroke-miterlimit:4;stroke-dasharray:none"
         id="path4045"
         d="m 218.95618,976.01977 -10.06403,0 -10.06403,0 5.03202,5.2826 5.03201,5.2826 5.03201,-5.2826 5.03202,-5.2826 z" />
      <path
         inkscape:export-ydpi="229.04837"
         inkscape:export-xdpi="229.04837"
         inkscape:connector-curvature="0"
         style="fill:#ffffff;fill-opacity:1;stroke:#ffffff;stroke-width:1.63888812;stroke-linejoin:round;stroke-miterlimit:4;stroke-opacity:1"
         id="rect4049"
         d="m 227.91156,941.22807 47.09524,-12.5515 c 3.32472,16.4753 -31.55644,15.9747 -47.61852,15.9747 z" />
      <path
         inkscape:export-ydpi="229.04837"
         inkscape:export-xdpi="229.04837"
         inkscape:connector-curvature="0"
         style="fill:#ffffff;fill-opacity:1;stroke:#ffffff;stroke-width:1.63888812;stroke-linejoin:round;stroke-miterlimit:4;stroke-opacity:1"
         id="path4052"
         d="m 188.84205,941.22807 -47.09523,-12.5515 c -3.32472,16.4753 31.55643,15.9747 47.61851,15.9747 z" />
      <path
         inkscape:export-ydpi="229.04837"
         inkscape:export-xdpi="229.04837"
         inkscape:connector-curvature="0"
         style="fill:#ffa500;fill-opacity:1;stroke:none"
         id="path4076"
         d="m 193.20102,1051.0601 a 3.20386,2.8264944 0 0 1 -6.40772,0 3.20386,2.8264944 0 1 1 6.40772,0 z" />
      <path
         inkscape:export-ydpi="229.04837"
         inkscape:export-xdpi="229.04837"
         inkscape:connector-curvature="0"
         style="fill:#ffa500;fill-opacity:1;stroke:none"
         id="path4078"
         d="m 199.60873,1051.0601 a 3.2038584,2.826493 0 0 1 -6.40771,0 3.2038584,2.826493 0 1 1 6.40771,0 z" />
      <path
         inkscape:export-ydpi="229.04837"
         inkscape:export-xdpi="229.04837"
         inkscape:connector-curvature="0"
         style="fill:#ffa500;fill-opacity:1;stroke:none"
         id="path4080"
         d="m 206.01645,1051.0601 a 3.20386,2.8264944 0 0 1 -6.40772,0 3.20386,2.8264944 0 1 1 6.40772,0 z" />
      <path
         inkscape:export-ydpi="229.04837"
         inkscape:export-xdpi="229.04837"
         inkscape:connector-curvature="0"
         style="fill:#ffa500;fill-opacity:1;stroke:none"
         id="path4082"
         d="m 220.11342,1051.0601 a 3.2038584,2.826493 0 0 1 -6.40771,0 3.2038584,2.826493 0 1 1 6.40771,0 z" />
      <path
         inkscape:export-ydpi="229.04837"
         inkscape:export-xdpi="229.04837"
         inkscape:connector-curvature="0"
         style="fill:#ffa500;fill-opacity:1;stroke:none"
         id="path4084"
         d="m 226.52114,1051.0601 a 3.20386,2.8264944 0 0 1 -6.40772,0 3.20386,2.8264944 0 1 1 6.40772,0 z" />
      <path
         inkscape:export-ydpi="229.04837"
         inkscape:export-xdpi="229.04837"
         inkscape:connector-curvature="0"
         style="fill:#ffa500;fill-opacity:1;stroke:none"
         id="path4086"
         d="m 232.92885,1051.0601 a 3.20386,2.8264944 0 0 1 -6.40772,0 3.20386,2.8264944 0 1 1 6.40772,0 z" />
      <path
         inkscape:export-ydpi="229.04837"
         inkscape:export-xdpi="229.04837"
         inkscape:connector-curvature="0"
         style="color:#000000;display:inline;overflow:visible;visibility:visible;fill:#ffa500;fill-opacity:1;fill-rule:nonzero;stroke:none;stroke-width:1px;marker:none;enable-background:accumulate"
         id="path3427"
         d="m 208.3234,967.98807 c -1.69435,2.2863 -2.70055,5.1474 -4.77383,7.2718 -1.26622,0.9033 -3.87119,-0.4677 -4.9782,0.8811 3.09761,3.7709 6.61239,7.4579 10.20247,10.7318 2.09844,-1.1282 3.572,-3.4748 5.38276,-5.09 1.64465,-1.8954 3.72353,-3.5894 5.04493,-5.6643 -1.19876,-1.143 -3.38279,-0.2621 -4.92106,-0.6644 -2.54761,-0.8659 -3.29988,-4.0289 -4.70397,-6.057 -0.38083,-0.4316 -0.56353,-1.4381 -1.2531,-1.409 z" />
      <path
         style="fill:#ffffff;fill-opacity:0;stroke:#ffffff;stroke-width:2.56389904;stroke-linecap:butt;stroke-linejoin:miter;stroke-miterlimit:4;stroke-dasharray:none;stroke-opacity:1"
         d="m 180.82058,983.38947 c -6.4179,-0.7562 -12.74343,-3.7347 -16.71883,-7.8722 -6.53303,-6.7994 -7.63224,-15.9669 -2.87556,-23.9824 0.74984,-1.2635 2.46296,-3.3348 3.80694,-4.6029 1.34397,-1.268 2.23321,-2.3055 1.97608,-2.3055 -1.08765,0 -6.79149,-0.8016 -9.29332,-1.3061 -11.11189,-2.2408 -16.72684,-6.4308 -16.72684,-12.4821 0,-1.1662 0.15608,-2.2764 0.34685,-2.4672 0.22178,-0.2217 8.41149,1.7852 22.7136,5.5662 12.30171,3.2521 23.91007,6.272 25.79635,6.7108 1.88629,0.4389 4.81047,1.468 6.4982,2.2869 5.4087,2.6246 10.67883,8.7289 11.73313,13.5904 l 0.27088,1.2491 0.79374,-2.1921 c 1.62414,-4.4854 4.25634,-7.8851 8.39081,-10.8373 2.79023,-1.9924 5.5753,-3.135 10.51463,-4.3137 2.12101,-0.5061 13.58906,-3.5139 25.48456,-6.6839 16.89688,-4.5027 21.69332,-5.6609 21.92588,-5.2942 0.16373,0.2581 0.30018,1.3715 0.30322,2.4742 0.016,5.8212 -5.55935,10.0794 -16.05945,12.2653 -2.83043,0.5892 -8.58631,1.4337 -9.77164,1.4337 -0.22236,0 0.91056,1.3412 2.51761,2.9804 3.33917,3.4059 4.99134,6.3587 5.86459,10.4813 1.78593,8.4315 -3.07256,17.5783 -11.70405,22.0347 -8.11843,4.1914 -17.14101,4.4026 -25.17366,0.5892 -4.17437,-1.9817 -4.05918,-1.8466 -2.88597,-3.3848 0.5506,-0.7218 0.89782,-1.4157 0.7716,-1.542 -0.12622,-0.1262 -1.42661,-0.3274 -2.88975,-0.4471 -1.46314,-0.1196 -2.93448,-0.4451 -3.26965,-0.7233 -0.89291,-0.741 -3.51147,-5.3367 -4.23079,-7.4252 -0.3494,-1.0144 -0.63279,-1.4676 -0.64702,-1.0346 -0.0354,1.0769 -2.65271,6.1743 -4.00686,7.8036 -1.01672,1.2233 -1.29377,1.3538 -2.87442,1.3538 -2.96179,0 -3.53229,0.5347 -2.14543,2.0109 l 0.74588,0.794 -1.10253,0.7851 c -1.72401,1.2276 -6.11244,3.1132 -8.6925,3.735 -2.52434,0.6083 -7.33482,0.9938 -9.38628,0.752 l 0,0 z m 7.90539,-7.3648 c 5.75323,-1.3792 9.96967,-4.5162 12.09297,-8.9969 0.98096,-2.0701 1.12078,-2.7489 1.12078,-5.4413 0,-2.7379 -0.12841,-3.3371 -1.16738,-5.4475 -2.85381,-5.7969 -9.5158,-9.4464 -17.24418,-9.4464 -7.72769,0 -14.39039,3.6495 -17.24361,9.4452 -1.03821,2.109 -1.16687,2.7093 -1.16737,5.4475 -5.1e-4,2.6944 0.1389,3.3717 1.12021,5.4425 2.09211,4.4149 6.32613,7.6035 11.92186,8.9783 3.70316,0.9097 6.82632,0.9152 10.56672,0.019 l 0,0 z m 49.773,0.011 c 4.99692,-1.198 8.78278,-3.5826 11.00639,-6.9326 6.83571,-10.2984 -1.89135,-22.3936 -16.1577,-22.3936 -13.15121,0 -22.01882,10.5847 -17.16545,20.4893 2.10463,4.295 6.35892,7.4713 11.79654,8.8071 3.69099,0.9068 6.82484,0.9157 10.52022,0.03 l 0,0 z"
         id="path3782"
         inkscape:connector-curvature="0"
         inkscape:export-filename="/tmp/ico.png"
         inkscape:export-xdpi="229.04837"
         inkscape:export-ydpi="229.04837" />
    </g>
    <g
       style="font-style:normal;font-weight:normal;font-size:40px;line-height:125%;font-family:sans-serif;letter-spacing:0px;word-spacing:0px;fill:#000000;fill-opacity:1;stroke:none;stroke-width:1px;stroke-linecap:butt;stroke-linejoin:miter;stroke-opacity:1"
       id="text15177">
      <path
         d="m 56.103459,1024.6794 q -1.375,0 -2.775,-0.1 -1.4,-0.075 -2.45,-0.35 l 0,-16.825 q 0.55,-0.1 1.175,-0.175 0.625,-0.1 1.275,-0.15 0.65,-0.05 1.275,-0.075 0.65,-0.025 1.225,-0.025 1.575,0 2.925,0.25 1.35,0.225 2.325,0.775 1,0.55 1.55,1.45 0.55,0.9 0.55,2.225 0,1.225 -0.6,2.1 -0.575,0.875 -1.625,1.4 1.575,0.525 2.325,1.55 0.75,1.025 0.75,2.6 0,2.675 -1.95,4.025 -1.95,1.325 -5.975,1.325 z m -2.125,-8 0,5.275 q 0.525,0.05 1.125,0.075 0.6,0.025 1.1,0.025 0.975,0 1.8,-0.125 0.85,-0.125 1.45,-0.425 0.625,-0.325 0.975,-0.85 0.375,-0.525 0.375,-1.35 0,-1.475 -1.075,-2.05 -1.075,-0.575 -2.975,-0.575 l -2.775,0 z m 0,-2.475 2.225,0 q 1.8,0 2.825,-0.5 1.025,-0.525 1.025,-1.85 0,-1.25 -1.075,-1.775 -1.05,-0.525 -2.75,-0.525 -0.725,0 -1.3,0.025 -0.55,0.025 -0.95,0.075 l 0,4.55 z"
         style="font-style:normal;font-variant:normal;font-weight:500;font-stretch:normal;font-size:25px;line-height:125%;font-family:Ubuntu;-inkscape-font-specification:'Ubuntu, Medium';text-align:start;writing-mode:lr-tb;text-anchor:start;fill:#ffffff;fill-opacity:1"
         id="path4157" />
      <path
         d="m 70.184709,1024.4794 -3.025,0 0,-13.075 3.025,0 0,13.075 z m 0.325,-16.9 q 0,0.85 -0.55,1.35 -0.55,0.5 -1.3,0.5 -0.775,0 -1.325,-0.5 -0.55,-0.5 -0.55,-1.35 0,-0.875 0.55,-1.375 0.55,-0.5 1.325,-0.5 0.75,0 1.3,0.5 0.55,0.5 0.55,1.375 z"
         style="font-style:normal;font-variant:normal;font-weight:500;font-stretch:normal;font-size:25px;line-height:125%;font-family:Ubuntu;-inkscape-font-specification:'Ubuntu, Medium';text-align:start;writing-mode:lr-tb;text-anchor:start;fill:#ffffff;fill-opacity:1"
         id="path4159" />
      <path
         d="m 73.869475,1007.9544 3.025,-0.5 0,3.95 4.65,0 0,2.525 -4.65,0 0,5.325 q 0,1.575 0.5,2.25 0.5,0.675 1.7,0.675 0.825,0 1.45,-0.175 0.65,-0.175 1.025,-0.325 l 0.5,2.4 q -0.525,0.225 -1.375,0.45 -0.85,0.25 -2,0.25 -1.4,0 -2.35,-0.375 -0.925,-0.375 -1.475,-1.075 -0.55,-0.725 -0.775,-1.725 -0.225,-1.025 -0.225,-2.325 l 0,-11.325 z"
         style="font-style:normal;font-variant:normal;font-weight:500;font-stretch:normal;font-size:25px;line-height:125%;font-family:Ubuntu;-inkscape-font-specification:'Ubuntu, Medium';text-align:start;writing-mode:lr-tb;text-anchor:start;fill:#ffffff;fill-opacity:1"
         id="path4161" />
      <path
         d="m 83.499553,1018.0044 q 0,-1.725 0.5,-3.025 0.525,-1.3 1.375,-2.15 0.85,-0.875 1.95,-1.3 1.1,-0.45 2.25,-0.45 2.7,0 4.2,1.675 1.525,1.675 1.525,5 0,0.25 -0.025,0.575 0,0.3 -0.025,0.55 l -8.625,0 q 0.125,1.575 1.1,2.45 1,0.85 2.875,0.85 1.1,0 2,-0.2 0.925,-0.2 1.45,-0.425 l 0.4,2.475 q -0.25,0.125 -0.7,0.275 -0.425,0.125 -1,0.225 -0.55,0.125 -1.2,0.2 -0.65,0.075 -1.325,0.075 -1.725,0 -3,-0.5 -1.275,-0.525 -2.1,-1.425 -0.825,-0.925 -1.225,-2.15 -0.4,-1.25 -0.4,-2.725 z m 8.775,-1.35 q 0,-0.625 -0.175,-1.175 -0.175,-0.575 -0.525,-0.975 -0.325,-0.425 -0.825,-0.65 -0.475,-0.25 -1.15,-0.25 -0.7,0 -1.225,0.275 -0.525,0.25 -0.9,0.675 -0.35,0.425 -0.55,0.975 -0.2,0.55 -0.275,1.125 l 5.625,0 z"
         style="font-style:normal;font-variant:normal;font-weight:500;font-stretch:normal;font-size:25px;line-height:125%;font-family:Ubuntu;-inkscape-font-specification:'Ubuntu, Medium';text-align:start;writing-mode:lr-tb;text-anchor:start;fill:#ffffff;fill-opacity:1"
         id="path4163" />
      <path
         d="m 105.93237,1014.1294 q -0.375,-0.125 -1.05,-0.25 -0.65,-0.15 -1.525,-0.15 -0.5,0 -1.075,0.1 -0.55,0.1 -0.775,0.175 l 0,10.475 -3.025005,0 0,-12.45 q 0.875,-0.325 2.175005,-0.6 1.325,-0.3 2.925,-0.3 0.3,0 0.7,0.05 0.4,0.025 0.8,0.1 0.4,0.05 0.775,0.15 0.375,0.075 0.6,0.15 l -0.525,2.55 z"
         style="font-style:normal;font-variant:normal;font-weight:500;font-stretch:normal;font-size:25px;line-height:125%;font-family:Ubuntu;-inkscape-font-specification:'Ubuntu, Medium';text-align:start;writing-mode:lr-tb;text-anchor:start;fill:#ffffff;fill-opacity:1"
         id="path4165" />
      <path
         d="m 110.91596,1017.6044 q 0,1.925 0.825,2.825 0.85,0.875 2.175,0.875 0.725,0 1.35,-0.2 0.65,-0.2 1.05,-0.475 l 0,-6.775 q -0.325,-0.075 -0.8,-0.125 -0.475,-0.075 -1.2,-0.075 -1.65,0 -2.525,1.1 -0.875,1.075 -0.875,2.85 z m 8.425,5.55 q 0,3.125 -1.6,4.575 -1.575,1.45 -4.85,1.45 -1.2,0 -2.35,-0.2 -1.125,-0.2 -2.05,-0.525 l 0.55,-2.575 q 0.775,0.325 1.75,0.525 1,0.2 2.15,0.2 1.825,0 2.6,-0.75 0.775,-0.75 0.775,-2.225 l 0,-0.5 q -0.45,0.225 -1.2,0.45 -0.725,0.225 -1.675,0.225 -1.25,0 -2.3,-0.4 -1.025,-0.4 -1.775,-1.175 -0.725,-0.775 -1.15,-1.925 -0.4,-1.175 -0.4,-2.7 0,-1.425 0.425,-2.625 0.45,-1.2 1.275,-2.05 0.85,-0.85 2.05,-1.325 1.2,-0.475 2.725,-0.475 1.475,0 2.8,0.225 1.325,0.225 2.25,0.475 l 0,11.325 z"
         style="font-style:normal;font-variant:normal;font-weight:500;font-stretch:normal;font-size:25px;line-height:125%;font-family:Ubuntu;-inkscape-font-specification:'Ubuntu, Medium';text-align:start;writing-mode:lr-tb;text-anchor:start;fill:#ffffff;fill-opacity:1"
         id="path4167" />
      <path
         d="m 126.2394,1024.4794 -3.025,0 0,-13.075 3.025,0 0,13.075 z m 0.325,-16.9 q 0,0.85 -0.55,1.35 -0.55,0.5 -1.3,0.5 -0.775,0 -1.325,-0.5 -0.55,-0.5 -0.55,-1.35 0,-0.875 0.55,-1.375 0.55,-0.5 1.325,-0.5 0.75,0 1.3,0.5 0.55,0.5 0.55,1.375 z"
         style="font-style:normal;font-variant:normal;font-weight:500;font-stretch:normal;font-size:25px;line-height:125%;font-family:Ubuntu;-inkscape-font-specification:'Ubuntu, Medium';text-align:start;writing-mode:lr-tb;text-anchor:start;fill:#ffffff;fill-opacity:1"
         id="path4169" />
      <path
         d="m 134.67416,1022.3544 q 1.4,0 2.125,-0.15 l 0,-3.35 q -0.25,-0.075 -0.725,-0.15 -0.475,-0.075 -1.05,-0.075 -0.5,0 -1.025,0.075 -0.5,0.075 -0.925,0.275 -0.4,0.2 -0.65,0.575 -0.25,0.35 -0.25,0.9 0,1.075 0.675,1.5 0.675,0.4 1.825,0.4 z m -0.25,-11.275 q 1.5,0 2.525,0.375 1.025,0.375 1.625,1.05 0.625,0.675 0.875,1.65 0.275,0.95 0.275,2.1 l 0,7.925 q -0.7,0.15 -2.125,0.35 -1.4,0.225 -3.175,0.225 -1.175,0 -2.15,-0.225 -0.975,-0.225 -1.675,-0.725 -0.675,-0.5 -1.075,-1.3 -0.375,-0.8 -0.375,-1.975 0,-1.125 0.425,-1.9 0.45,-0.775 1.2,-1.25 0.75,-0.5 1.725,-0.7 1,-0.225 2.075,-0.225 0.5,0 1.05,0.075 0.55,0.05 1.175,0.2 l 0,-0.5 q 0,-0.525 -0.125,-1 -0.125,-0.475 -0.45,-0.825 -0.3,-0.375 -0.825,-0.575 -0.5,-0.2 -1.275,-0.2 -1.05,0 -1.925,0.15 -0.875,0.15 -1.425,0.35 l -0.375,-2.45 q 0.575,-0.2 1.675,-0.4 1.1,-0.2 2.35,-0.2 z"
         style="font-style:normal;font-variant:normal;font-weight:500;font-stretch:normal;font-size:25px;line-height:125%;font-family:Ubuntu;-inkscape-font-specification:'Ubuntu, Medium';text-align:start;writing-mode:lr-tb;text-anchor:start;fill:#ffffff;fill-opacity:1"
         id="path4171" />
    </g>
    <g
       aria-label="analytics"
       style="font-style:normal;font-weight:normal;line-height:0%;font-family:sans-serif;letter-spacing:0px;word-spacing:0px;fill:#000000;fill-opacity:1;stroke:none;stroke-width:1px;stroke-linecap:butt;stroke-linejoin:miter;stroke-opacity:1"
       id="text15177-1">
      <path
         d="m 53.247388,1045.3287 q 0.66,0 1.16,-0.02 0.52,-0.04 0.86,-0.12 v -3.1 q -0.2,-0.1 -0.66,-0.16 -0.44,-0.08 -1.08,-0.08 -0.42,0 -0.9,0.06 -0.46,0.06 -0.86,0.26 -0.38,0.18 -0.64,0.52 -0.26,0.32 -0.26,0.86 0,1 0.64,1.4 0.64,0.38 1.74,0.38 z m -0.16,-9.32 q 1.12,0 1.88,0.3 0.78,0.28 1.24,0.82 0.48,0.52 0.68,1.26 0.2,0.72 0.2,1.6 v 6.5 q -0.24,0.04 -0.68,0.12 -0.42,0.06 -0.96,0.12 -0.54,0.06 -1.18,0.1 -0.62,0.06 -1.24,0.06 -0.88,0 -1.62,-0.18 -0.74,-0.18 -1.28,-0.56 -0.54,-0.4 -0.84,-1.04 -0.3,-0.64 -0.3,-1.54 0,-0.86 0.34,-1.48 0.36,-0.62 0.96,-1 0.6,-0.38 1.4,-0.56 0.8,-0.18 1.68,-0.18 0.28,0 0.58,0.04 0.3,0.02 0.56,0.08 0.28,0.04 0.48,0.08 0.2,0.04 0.28,0.06 v -0.52 q 0,-0.46 -0.1,-0.9 -0.1,-0.46 -0.36,-0.8 -0.26,-0.36 -0.72,-0.56 -0.44,-0.22 -1.16,-0.22 -0.92,0 -1.62,0.14 -0.68,0.12 -1.02,0.26 l -0.22,-1.54 q 0.36,-0.16 1.2,-0.3 0.84,-0.16 1.82,-0.16 z"
         style="font-style:normal;font-variant:normal;font-weight:normal;font-stretch:normal;font-size:20px;line-height:125%;font-family:Ubuntu;-inkscape-font-specification:'Ubuntu, Normal';text-align:start;writing-mode:lr-tb;text-anchor:start;fill:#ffffff;fill-opacity:1"
         id="path842" />
      <path
         d="m 60.157076,1036.5687 q 0.64,-0.16 1.7,-0.34 1.06,-0.18 2.44,-0.18 1.24,0 2.06,0.36 0.82,0.34 1.3,0.98 0.5,0.62 0.7,1.5 0.2,0.88 0.2,1.94 v 5.84 h -1.86 v -5.44 q 0,-0.96 -0.14,-1.64 -0.12,-0.68 -0.42,-1.1 -0.3,-0.42 -0.8,-0.6 -0.5,-0.2 -1.24,-0.2 -0.3,0 -0.62,0.02 -0.32,0.02 -0.62,0.06 -0.28,0.02 -0.52,0.06 -0.22,0.04 -0.32,0.06 v 8.78 h -1.86 z"
         style="font-style:normal;font-variant:normal;font-weight:normal;font-stretch:normal;font-size:20px;line-height:125%;font-family:Ubuntu;-inkscape-font-specification:'Ubuntu, Normal';text-align:start;writing-mode:lr-tb;text-anchor:start;fill:#ffffff;fill-opacity:1"
         id="path844" />
      <path
         d="m 75.161451,1045.3287 q 0.66,0 1.16,-0.02 0.52,-0.04 0.86,-0.12 v -3.1 q -0.2,-0.1 -0.66,-0.16 -0.44,-0.08 -1.08,-0.08 -0.42,0 -0.9,0.06 -0.46,0.06 -0.86,0.26 -0.38,0.18 -0.64,0.52 -0.26,0.32 -0.26,0.86 0,1 0.64,1.4 0.64,0.38 1.74,0.38 z m -0.16,-9.32 q 1.12,0 1.88,0.3 0.78,0.28 1.24,0.82 0.48,0.52 0.68,1.26 0.2,0.72 0.2,1.6 v 6.5 q -0.24,0.04 -0.68,0.12 -0.42,0.06 -0.96,0.12 -0.54,0.06 -1.18,0.1 -0.62,0.06 -1.24,0.06 -0.88,0 -1.62,-0.18 -0.74,-0.18 -1.28,-0.56 -0.54,-0.4 -0.84,-1.04 -0.3,-0.64 -0.3,-1.54 0,-0.86 0.34,-1.48 0.36,-0.62 0.96,-1 0.6,-0.38 1.4,-0.56 0.8,-0.18 1.68,-0.18 0.28,0 0.58,0.04 0.3,0.02 0.56,0.08 0.28,0.04 0.48,0.08 0.2,0.04 0.28,0.06 v -0.52 q 0,-0.46 -0.1,-0.9 -0.1,-0.46 -0.36,-0.8 -0.26,-0.36 -0.72,-0.56 -0.44,-0.22 -1.16,-0.22 -0.92,0 -1.62,0.14 -0.68,0.12 -1.02,0.26 l -0.22,-1.54 q 0.36,-0.16 1.2,-0.3 0.84,-0.16 1.82,-0.16 z"
         style="font-style:normal;font-variant:normal;font-weight:normal;font-stretch:normal;font-size:20px;line-height:125%;font-family:Ubuntu;-inkscape-font-specification:'Ubuntu, Normal';text-align:start;writing-mode:lr-tb;text-anchor:start;fill:#ffffff;fill-opacity:1"
         id="path846" />
      <path
         d="m 85.191138,1046.8687 q -1.72,-0.04 -2.44,-0.74 -0.72,-0.7 -0.72,-2.18 v -12.48 l 1.86,-0.32 v 12.5 q 0,0.46 0.08,0.76 0.08,0.3 0.26,0.48 0.18,0.18 0.48,0.28 0.3,0.08 0.74,0.14 z"
         style="font-style:normal;font-variant:normal;font-weight:normal;font-stretch:normal;font-size:20px;line-height:125%;font-family:Ubuntu;-inkscape-font-specification:'Ubuntu, Normal';text-align:start;writing-mode:lr-tb;text-anchor:start;fill:#ffffff;fill-opacity:1"
         id="path848" />
      <path
         d="m 86.319888,1048.6087 q 0.22,0.1 0.56,0.18 0.36,0.1 0.7,0.1 1.1,0 1.72,-0.5 0.62,-0.48 1.12,-1.58 -1.26,-2.4 -2.36,-5.08 -1.08,-2.7 -1.8,-5.46 h 2 q 0.22,0.9 0.52,1.94 0.32,1.04 0.7,2.14 0.38,1.1 0.82,2.2 0.44,1.1 0.92,2.12 0.76,-2.1 1.32,-4.16 0.56,-2.06 1.06,-4.24 h 1.92 q -0.72,2.94 -1.6,5.66 -0.88,2.7 -1.9,5.06 -0.4,0.9 -0.84,1.54 -0.42,0.66 -0.94,1.08 -0.52,0.42 -1.18,0.62 -0.64,0.2 -1.46,0.2 -0.22,0 -0.46,-0.04 -0.24,-0.02 -0.48,-0.08 -0.22,-0.04 -0.42,-0.1 -0.18,-0.06 -0.26,-0.1 z"
         style="font-style:normal;font-variant:normal;font-weight:normal;font-stretch:normal;font-size:20px;line-height:125%;font-family:Ubuntu;-inkscape-font-specification:'Ubuntu, Normal';text-align:start;writing-mode:lr-tb;text-anchor:start;fill:#ffffff;fill-opacity:1"
         id="path850" />
      <path
         d="m 99.201763,1036.2687 h 3.939997 v 1.56 h -3.939997 v 4.8 q 0,0.78 0.12,1.3 0.12,0.5 0.36,0.8 0.24,0.28 0.599997,0.4 0.36,0.12 0.84,0.12 0.84,0 1.34,-0.18 0.52,-0.2 0.72,-0.28 l 0.36,1.54 q -0.28,0.14 -0.98,0.34 -0.7,0.22 -1.6,0.22 -1.059997,0 -1.759997,-0.26 -0.68,-0.28 -1.1,-0.82 -0.42,-0.54 -0.6,-1.32 -0.16,-0.8 -0.16,-1.84 v -9.28 l 1.86,-0.32 z"
         style="font-style:normal;font-variant:normal;font-weight:normal;font-stretch:normal;font-size:20px;line-height:125%;font-family:Ubuntu;-inkscape-font-specification:'Ubuntu, Normal';text-align:start;writing-mode:lr-tb;text-anchor:start;fill:#ffffff;fill-opacity:1"
         id="path852" />
      <path
         d="m 107.36864,1046.6687 h -1.86 v -10.4 h 1.86 z m -0.94,-12.28 q -0.5,0 -0.86,-0.32 -0.34,-0.34 -0.34,-0.9 0,-0.56 0.34,-0.88 0.36,-0.34 0.86,-0.34 0.5,0 0.84,0.34 0.36,0.32 0.36,0.88 0,0.56 -0.36,0.9 -0.34,0.32 -0.84,0.32 z"
         style="font-style:normal;font-variant:normal;font-weight:normal;font-stretch:normal;font-size:20px;line-height:125%;font-family:Ubuntu;-inkscape-font-specification:'Ubuntu, Normal';text-align:start;writing-mode:lr-tb;text-anchor:start;fill:#ffffff;fill-opacity:1"
         id="path854" />
      <path
         d="m 115.10676,1046.9087 q -1.26,0 -2.22,-0.4 -0.94,-0.4 -1.6,-1.12 -0.64,-0.72 -0.96,-1.7 -0.32,-1 -0.32,-2.2 0,-1.2 0.34,-2.2 0.36,-1 1,-1.72 0.64,-0.74 1.56,-1.14 0.94,-0.42 2.08,-0.42 0.7,0 1.4,0.12 0.7,0.12 1.34,0.38 l -0.42,1.58 q -0.42,-0.2 -0.98,-0.32 -0.54,-0.12 -1.16,-0.12 -1.56,0 -2.4,0.98 -0.82,0.98 -0.82,2.86 0,0.84 0.18,1.54 0.2,0.7 0.6,1.2 0.42,0.5 1.06,0.78 0.64,0.26 1.56,0.26 0.74,0 1.34,-0.14 0.6,-0.14 0.94,-0.3 l 0.26,1.56 q -0.16,0.1 -0.46,0.2 -0.3,0.08 -0.68,0.14 -0.38,0.08 -0.82,0.12 -0.42,0.06 -0.82,0.06 z"
         style="font-style:normal;font-variant:normal;font-weight:normal;font-stretch:normal;font-size:20px;line-height:125%;font-family:Ubuntu;-inkscape-font-specification:'Ubuntu, Normal';text-align:start;writing-mode:lr-tb;text-anchor:start;fill:#ffffff;fill-opacity:1"
         id="path856" />
      <path
         d="m 122.30364,1045.3287 q 1.14,0 1.68,-0.3 0.56,-0.3 0.56,-0.96 0,-0.68 -0.54,-1.08 -0.54,-0.4 -1.78,-0.9 -0.6,-0.24 -1.16,-0.48 -0.54,-0.26 -0.94,-0.6 -0.4,-0.34 -0.64,-0.82 -0.24,-0.48 -0.24,-1.18 0,-1.38 1.02,-2.18 1.02,-0.82 2.78,-0.82 0.44,0 0.88,0.06 0.44,0.04 0.82,0.12 0.38,0.06 0.66,0.14 0.3,0.08 0.46,0.14 l -0.34,1.6 q -0.3,-0.16 -0.94,-0.32 -0.64,-0.18 -1.54,-0.18 -0.78,0 -1.36,0.32 -0.58,0.3 -0.58,0.96 0,0.34 0.12,0.6 0.14,0.26 0.4,0.48 0.28,0.2 0.68,0.38 0.4,0.18 0.96,0.38 0.74,0.28 1.32,0.56 0.58,0.26 0.98,0.62 0.42,0.36 0.64,0.88 0.22,0.5 0.22,1.24 0,1.44 -1.08,2.18 -1.06,0.74 -3.04,0.74 -1.38,0 -2.16,-0.24 -0.78,-0.22 -1.06,-0.34 l 0.34,-1.6 q 0.32,0.12 1.02,0.36 0.7,0.24 1.86,0.24 z"
         style="font-style:normal;font-variant:normal;font-weight:normal;font-stretch:normal;font-size:20px;line-height:125%;font-family:Ubuntu;-inkscape-font-specification:'Ubuntu, Normal';text-align:start;writing-mode:lr-tb;text-anchor:start;fill:#ffffff;fill-opacity:1"
         id="path858" />
    </g>
  </g>
</svg>
