<?xml version="1.0" encoding="UTF-8" standalone="no"?>
<!-- Created with Inkscape (http://www.inkscape.org/) -->

<svg
   xmlns:dc="http://purl.org/dc/elements/1.1/"
   xmlns:cc="http://creativecommons.org/ns#"
   xmlns:rdf="http://www.w3.org/1999/02/22-rdf-syntax-ns#"
   xmlns:svg="http://www.w3.org/2000/svg"
   xmlns="http://www.w3.org/2000/svg"
   xmlns:sodipodi="http://sodipodi.sourceforge.net/DTD/sodipodi-0.dtd"
   xmlns:inkscape="http://www.inkscape.org/namespaces/inkscape"
   width="141"
   height="51"
   viewBox="0 0 141 51.000001"
   id="svg14569"
   version="1.1"
   inkscape:version="0.91 r13725"
   sodipodi:docname="bitergia-analytics.svg">
  <defs
     id="defs14571" />
  <sodipodi:namedview
     id="base"
     pagecolor="#ffffff"
     bordercolor="#666666"
     borderopacity="1.0"
     inkscape:pageopacity="0.0"
     inkscape:pageshadow="2"
     inkscape:zoom="4.0167969"
     inkscape:cx="173.82138"
     inkscape:cy="55.154285"
     inkscape:document-units="px"
     inkscape:current-layer="layer1"
     showgrid="false"
     units="px"
     inkscape:window-width="3200"
     inkscape:window-height="1671"
     inkscape:window-x="0"
     inkscape:window-y="55"
     inkscape:window-maximized="1" />
  <metadata
     id="metadata14574">
    <rdf:RDF>
      <cc:Work
         rdf:about="">
        <dc:format>image/svg+xml</dc:format>
        <dc:type
           rdf:resource="http://purl.org/dc/dcmitype/StillImage" />
        <dc:title></dc:title>
      </cc:Work>
    </rdf:RDF>
  </metadata>
  <g
     inkscape:label="Capa 1"
     inkscape:groupmode="layer"
     id="layer1"
     transform="translate(0,-1001.3622)">
    <g
       id="g15157"
       transform="matrix(0.32203382,0,0,0.32203382,-43.702061,707.70137)">
      <path
         inkscape:export-ydpi="229.04837"
         inkscape:export-xdpi="229.04837"
         inkscape:connector-curvature="0"
         style="fill:#ffffff;fill-opacity:0;stroke:#ffffff;stroke-width:7.10200024;stroke-linejoin:round;stroke-miterlimit:4;stroke-dasharray:none;stroke-opacity:1"
         id="path4006"
         d="m 205.51713,961.66087 a 21.977776,18.46584 0 0 1 -43.95555,0 21.977776,18.46584 0 1 1 43.95555,0 z" />
      <path
         inkscape:export-ydpi="229.04837"
         inkscape:export-xdpi="229.04837"
         inkscape:connector-curvature="0"
         style="fill:#000000;stroke:#000000;stroke-width:7.1018672;stroke-linejoin:round;stroke-miterlimit:4;stroke-dasharray:none"
         id="path4017"
         d="m 191.91184,961.66087 a 8.1108453,7.3863354 0 1 1 -16.22169,0 8.1108453,7.3863354 0 1 1 16.22169,0 z" />
      <path
         inkscape:export-ydpi="229.04837"
         inkscape:export-xdpi="229.04837"
         inkscape:connector-curvature="0"
         style="fill:#ffffff;stroke:#ffffff;stroke-width:7.1018672;stroke-linejoin:round;stroke-miterlimit:4;stroke-dasharray:none"
         id="path4019"
         d="m 182.49248,960.27577 a 1.3082009,1.8465838 0 1 1 -2.6164,0 1.3082009,1.8465838 0 1 1 2.6164,0 z" />
      <path
         inkscape:export-ydpi="229.04837"
         inkscape:export-xdpi="229.04837"
         inkscape:connector-curvature="0"
         style="fill:#ffffff;fill-opacity:0;stroke:#ffffff;stroke-width:7.1018672;stroke-linejoin:round;stroke-miterlimit:4;stroke-dasharray:none;stroke-opacity:1"
         id="path4028"
         d="m 255.35712,961.66087 a 21.97778,18.465843 0 0 1 -43.95556,0 21.97778,18.465843 0 1 1 43.95556,0 z" />
      <path
         inkscape:export-ydpi="229.04837"
         inkscape:export-xdpi="229.04837"
         inkscape:connector-curvature="0"
         style="fill:#000000;stroke:#000000;stroke-width:7.1018672;stroke-linejoin:round;stroke-miterlimit:4;stroke-dasharray:none"
         id="path4030"
         d="m 241.75183,961.66087 a 8.1108453,7.3863354 0 1 1 -16.22169,0 8.1108453,7.3863354 0 1 1 16.22169,0 z" />
      <path
         inkscape:export-ydpi="229.04837"
         inkscape:export-xdpi="229.04837"
         inkscape:connector-curvature="0"
         style="fill:#ffffff;stroke:#ffffff;stroke-width:7.1018672;stroke-linejoin:round;stroke-miterlimit:4;stroke-dasharray:none"
         id="path4032"
         d="m 232.33247,960.27577 a 1.3082009,1.8465838 0 1 1 -2.6164,0 1.3082009,1.8465838 0 1 1 2.6164,0 z" />
      <path
         inkscape:export-ydpi="229.04837"
         inkscape:export-xdpi="229.04837"
         inkscape:connector-curvature="0"
         style="fill:#ffffff;fill-opacity:1;stroke:#ffffff;stroke-width:4.31666517;stroke-linejoin:round;stroke-miterlimit:4;stroke-opacity:1"
         id="path4036"
         d="m 238.71106,1003.1724 c 0,11.6324 -13.52542,49.8363 -30.20987,49.8363 -16.68446,0 -30.20987,-38.2039 -30.20987,-49.8363 0,-11.63243 13.52541,-21.06233 30.20987,-21.06233 16.68445,0 30.20987,9.4299 30.20987,21.06233 z" />
      <path
         inkscape:export-ydpi="229.04837"
         inkscape:export-xdpi="229.04837"
         inkscape:connector-curvature="0"
         style="fill:#ffffff;fill-opacity:1;stroke:#ffffff;stroke-width:0.6681962;stroke-linejoin:round;stroke-miterlimit:4;stroke-dasharray:none"
         id="path4045"
         d="m 218.95618,976.01977 -10.06403,0 -10.06403,0 5.03202,5.2826 5.03201,5.2826 5.03201,-5.2826 5.03202,-5.2826 z" />
      <path
         inkscape:export-ydpi="229.04837"
         inkscape:export-xdpi="229.04837"
         inkscape:connector-curvature="0"
         style="fill:#ffffff;fill-opacity:1;stroke:#ffffff;stroke-width:1.63888812;stroke-linejoin:round;stroke-miterlimit:4;stroke-opacity:1"
         id="rect4049"
         d="m 227.91156,941.22807 47.09524,-12.5515 c 3.32472,16.4753 -31.55644,15.9747 -47.61852,15.9747 z" />
      <path
         inkscape:export-ydpi="229.04837"
         inkscape:export-xdpi="229.04837"
         inkscape:connector-curvature="0"
         style="fill:#ffffff;fill-opacity:1;stroke:#ffffff;stroke-width:1.63888812;stroke-linejoin:round;stroke-miterlimit:4;stroke-opacity:1"
         id="path4052"
         d="m 188.84205,941.22807 -47.09523,-12.5515 c -3.32472,16.4753 31.55643,15.9747 47.61851,15.9747 z" />
      <path
         inkscape:export-ydpi="229.04837"
         inkscape:export-xdpi="229.04837"
         inkscape:connector-curvature="0"
         style="fill:#ffa500;fill-opacity:1;stroke:none"
         id="path4076"
         d="m 193.20102,1051.0601 a 3.20386,2.8264944 0 0 1 -6.40772,0 3.20386,2.8264944 0 1 1 6.40772,0 z" />
      <path
         inkscape:export-ydpi="229.04837"
         inkscape:export-xdpi="229.04837"
         inkscape:connector-curvature="0"
         style="fill:#ffa500;fill-opacity:1;stroke:none"
         id="path4078"
         d="m 199.60873,1051.0601 a 3.2038584,2.826493 0 0 1 -6.40771,0 3.2038584,2.826493 0 1 1 6.40771,0 z" />
      <path
         inkscape:export-ydpi="229.04837"
         inkscape:export-xdpi="229.04837"
         inkscape:connector-curvature="0"
         style="fill:#ffa500;fill-opacity:1;stroke:none"
         id="path4080"
         d="m 206.01645,1051.0601 a 3.20386,2.8264944 0 0 1 -6.40772,0 3.20386,2.8264944 0 1 1 6.40772,0 z" />
      <path
         inkscape:export-ydpi="229.04837"
         inkscape:export-xdpi="229.04837"
         inkscape:connector-curvature="0"
         style="fill:#ffa500;fill-opacity:1;stroke:none"
         id="path4082"
         d="m 220.11342,1051.0601 a 3.2038584,2.826493 0 0 1 -6.40771,0 3.2038584,2.826493 0 1 1 6.40771,0 z" />
      <path
         inkscape:export-ydpi="229.04837"
         inkscape:export-xdpi="229.04837"
         inkscape:connector-curvature="0"
         style="fill:#ffa500;fill-opacity:1;stroke:none"
         id="path4084"
         d="m 226.52114,1051.0601 a 3.20386,2.8264944 0 0 1 -6.40772,0 3.20386,2.8264944 0 1 1 6.40772,0 z" />
      <path
         inkscape:export-ydpi="229.04837"
         inkscape:export-xdpi="229.04837"
         inkscape:connector-curvature="0"
         style="fill:#ffa500;fill-opacity:1;stroke:none"
         id="path4086"
         d="m 232.92885,1051.0601 a 3.20386,2.8264944 0 0 1 -6.40772,0 3.20386,2.8264944 0 1 1 6.40772,0 z" />
      <path
         inkscape:export-ydpi="229.04837"
         inkscape:export-xdpi="229.04837"
         inkscape:connector-curvature="0"
         style="color:#000000;display:inline;overflow:visible;visibility:visible;fill:#ffa500;fill-opacity:1;fill-rule:nonzero;stroke:none;stroke-width:1px;marker:none;enable-background:accumulate"
         id="path3427"
         d="m 208.3234,967.98807 c -1.69435,2.2863 -2.70055,5.1474 -4.77383,7.2718 -1.26622,0.9033 -3.87119,-0.4677 -4.9782,0.8811 3.09761,3.7709 6.61239,7.4579 10.20247,10.7318 2.09844,-1.1282 3.572,-3.4748 5.38276,-5.09 1.64465,-1.8954 3.72353,-3.5894 5.04493,-5.6643 -1.19876,-1.143 -3.38279,-0.2621 -4.92106,-0.6644 -2.54761,-0.8659 -3.29988,-4.0289 -4.70397,-6.057 -0.38083,-0.4316 -0.56353,-1.4381 -1.2531,-1.409 z" />
      <path
         style="fill:#ffffff;fill-opacity:0;stroke:#ffffff;stroke-width:2.56389904;stroke-linecap:butt;stroke-linejoin:miter;stroke-miterlimit:4;stroke-dasharray:none;stroke-opacity:1"
         d="m 180.82058,983.38947 c -6.4179,-0.7562 -12.74343,-3.7347 -16.71883,-7.8722 -6.53303,-6.7994 -7.63224,-15.9669 -2.87556,-23.9824 0.74984,-1.2635 2.46296,-3.3348 3.80694,-4.6029 1.34397,-1.268 2.23321,-2.3055 1.97608,-2.3055 -1.08765,0 -6.79149,-0.8016 -9.29332,-1.3061 -11.11189,-2.2408 -16.72684,-6.4308 -16.72684,-12.4821 0,-1.1662 0.15608,-2.2764 0.34685,-2.4672 0.22178,-0.2217 8.41149,1.7852 22.7136,5.5662 12.30171,3.2521 23.91007,6.272 25.79635,6.7108 1.88629,0.4389 4.81047,1.468 6.4982,2.2869 5.4087,2.6246 10.67883,8.7289 11.73313,13.5904 l 0.27088,1.2491 0.79374,-2.1921 c 1.62414,-4.4854 4.25634,-7.8851 8.39081,-10.8373 2.79023,-1.9924 5.5753,-3.135 10.51463,-4.3137 2.12101,-0.5061 13.58906,-3.5139 25.48456,-6.6839 16.89688,-4.5027 21.69332,-5.6609 21.92588,-5.2942 0.16373,0.2581 0.30018,1.3715 0.30322,2.4742 0.016,5.8212 -5.55935,10.0794 -16.05945,12.2653 -2.83043,0.5892 -8.58631,1.4337 -9.77164,1.4337 -0.22236,0 0.91056,1.3412 2.51761,2.9804 3.33917,3.4059 4.99134,6.3587 5.86459,10.4813 1.78593,8.4315 -3.07256,17.5783 -11.70405,22.0347 -8.11843,4.1914 -17.14101,4.4026 -25.17366,0.5892 -4.17437,-1.9817 -4.05918,-1.8466 -2.88597,-3.3848 0.5506,-0.7218 0.89782,-1.4157 0.7716,-1.542 -0.12622,-0.1262 -1.42661,-0.3274 -2.88975,-0.4471 -1.46314,-0.1196 -2.93448,-0.4451 -3.26965,-0.7233 -0.89291,-0.741 -3.51147,-5.3367 -4.23079,-7.4252 -0.3494,-1.0144 -0.63279,-1.4676 -0.64702,-1.0346 -0.0354,1.0769 -2.65271,6.1743 -4.00686,7.8036 -1.01672,1.2233 -1.29377,1.3538 -2.87442,1.3538 -2.96179,0 -3.53229,0.5347 -2.14543,2.0109 l 0.74588,0.794 -1.10253,0.7851 c -1.72401,1.2276 -6.11244,3.1132 -8.6925,3.735 -2.52434,0.6083 -7.33482,0.9938 -9.38628,0.752 l 0,0 z m 7.90539,-7.3648 c 5.75323,-1.3792 9.96967,-4.5162 12.09297,-8.9969 0.98096,-2.0701 1.12078,-2.7489 1.12078,-5.4413 0,-2.7379 -0.12841,-3.3371 -1.16738,-5.4475 -2.85381,-5.7969 -9.5158,-9.4464 -17.24418,-9.4464 -7.72769,0 -14.39039,3.6495 -17.24361,9.4452 -1.03821,2.109 -1.16687,2.7093 -1.16737,5.4475 -5.1e-4,2.6944 0.1389,3.3717 1.12021,5.4425 2.09211,4.4149 6.32613,7.6035 11.92186,8.9783 3.70316,0.9097 6.82632,0.9152 10.56672,0.019 l 0,0 z m 49.773,0.011 c 4.99692,-1.198 8.78278,-3.5826 11.00639,-6.9326 6.83571,-10.2984 -1.89135,-22.3936 -16.1577,-22.3936 -13.15121,0 -22.01882,10.5847 -17.16545,20.4893 2.10463,4.295 6.35892,7.4713 11.79654,8.8071 3.69099,0.9068 6.82484,0.9157 10.52022,0.03 l 0,0 z"
         id="path3782"
         inkscape:connector-curvature="0"
         inkscape:export-filename="/tmp/ico.png"
         inkscape:export-xdpi="229.04837"
         inkscape:export-ydpi="229.04837" />
    </g>
    <text
       xml:space="preserve"
       style="font-style:normal;font-weight:normal;font-size:40px;line-height:125%;font-family:sans-serif;letter-spacing:0px;word-spacing:0px;fill:#000000;fill-opacity:1;stroke:none;stroke-width:1px;stroke-linecap:butt;stroke-linejoin:miter;stroke-opacity:1"
       x="48.803459"
       y="1024.4794"
       id="text15177"
       sodipodi:linespacing="125%"><tspan
         sodipodi:role="line"
         x="48.803459"
         y="1024.4794"
         id="tspan15181"
         style="font-style:normal;font-variant:normal;font-weight:500;font-stretch:normal;font-size:25px;line-height:125%;font-family:Ubuntu;-inkscape-font-specification:'Ubuntu, Medium';text-align:start;writing-mode:lr-tb;text-anchor:start;fill:#ffffff;fill-opacity:1">Bitergia</tspan></text>
    <text
       xml:space="preserve"
       style="font-style:normal;font-weight:normal;font-size:40px;line-height:125%;font-family:sans-serif;letter-spacing:0px;word-spacing:0px;fill:#000000;fill-opacity:1;stroke:none;stroke-width:1px;stroke-linecap:butt;stroke-linejoin:miter;stroke-opacity:1"
       x="49.109074"
       y="1046.546"
       id="text15177-1"
       sodipodi:linespacing="125%"><tspan
         sodipodi:role="line"
         x="49.109074"
         y="1046.546"
         id="tspan15181-5"
         style="font-style:normal;font-variant:normal;font-weight:normal;font-stretch:normal;font-size:20px;line-height:125%;font-family:Ubuntu;-inkscape-font-specification:'Ubuntu, Normal';text-align:start;writing-mode:lr-tb;text-anchor:start;fill:#ffffff;fill-opacity:1">analytics</tspan></text>
  </g>
</svg>
